<svg xmlns="http://www.w3.org/2000/svg" xmlns:xlink="http://www.w3.org/1999/xlink" width="15" height="15" viewBox="0 0 15 15"><defs><path id="77zba" d="M1156.47 41.5a.53.53 0 0 1-.54-.53 5.9 5.9 0 0 0-5.89-5.89.53.53 0 1 1 0-1.07 6.97 6.97 0 0 1 6.96 6.96c0 .3-.24.53-.53.53zm-3.6.51a.53.53 0 0 1-.54-.53 2.8 2.8 0 0 0-2.8-2.8.54.54 0 0 1 0-1.07 3.88 3.88 0 0 1 3.87 3.87c0 .3-.24.53-.53.53zm-1.3 6.98c-.71 0-3.27-.23-6.3-3.26-3.03-3.02-3.26-5.58-3.26-6.3 0-1.29 1.5-3.3 2.47-3.32h.94c.32 0 .61.2.73.49l1.25 2.97a.8.8 0 0 1-.25.94c-.58.43-1.18.88-1.26 1.02.03.17.6 1.05 1.56 2.02.98.97 1.86 1.53 2.1 1.55.07-.07.52-.67.95-1.24a.8.8 0 0 1 .63-.32c.07 0 .24.04.3.06l2.99 1.25c.3.12.48.4.48.73v.94c0 .97-2.03 2.47-3.33 2.47zm-7.09-11.8c-.3.09-1.4 1.41-1.4 2.24 0 .62.21 2.81 2.95 5.55 2.74 2.73 4.93 2.94 5.54 2.94.84 0 2.16-1.1 2.27-1.45v-.7l-2.61-1.1c-.84 1.11-1.15 1.49-1.69 1.5-.9 0-2.4-1.43-2.84-1.86-.44-.44-1.86-1.94-1.86-2.84 0-.55.38-.86 1.49-1.68l-1.1-2.6z"/></defs><g><g transform="translate(-1142 -34)"><use fill="#fff" xlink:href="#77zba"/><use fill="#542749" xlink:href="#77zba"/></g></g></svg>